<?xml version="1.0" encoding="utf-8" ?><svg xmlns="http://www.w3.org/2000/svg" xmlns:xlink="http://www.w3.org/1999/xlink" width="1024" height="1024" viewBox="0 0 1024 1024"><metadata><c2pa:manifest xmlns:c2pa="http://c2pa.org/manifest">AAAgqGp1bWIAAAAeanVtZGMycGEAEQAQgAAAqgA4m3EDYzJwYQAAAAxBanVtYgAAAEdqdW1kYzJtYQARABCAAACqADibcQN1cm46YzJwYTo5NTI4NzdhZC1iMzc5LTQ3YTItODcxMS01MDg0OTAxNWUyNWYAAAAB4mp1bWIAAAApanVtZGMyYXMAEQAQgAAAqgA4m3EDYzJwYS5hc3NlcnRpb25zAAAAAO1qdW1iAAAAQWp1bWRjYm9yABEAEIAAAKoAOJtxE2MycGEuYWN0aW9ucy52MgAAAAAYYzJzaEtOqCYYyjcVUxiHpW522gMAAACkY2JvcqFnYWN0aW9uc4GjZmFjdGlvbmxjMnBhLmNyZWF0ZWRxZGlnaXRhbFNvdXJjZVR5cGV4Rmh0dHA6Ly9jdi5pcHRjLm9yZy9uZXdzY29kZXMvZGlnaXRhbHNvdXJjZXR5cGUvdHJhaW5lZEFsZ29yaXRobWljTWVkaWFrZGVzY3JpcHRpb252Q3JlYXRlZCBieSBSZWNyYWZ0IEFJLgAAAMRqdW1iAAAAQGp1bWRjYm9yABEAEIAAAKoAOJtxE2MycGEuaGFzaC5kYXRhAAAAABhjMnNoi/Ym5oOU/MmPoU1MhI+SDQAAAHxjYm9ypWpleGNsdXNpb25zgaJlc3RhcnQY22ZsZW5ndGgZEIxkbmFtZW5qdW1iZiBtYW5pZmVzdGNhbGdmc2hhMjU2ZGhhc2hYIO6neJhRkRvdjCjTTwIQkFdrj9OT19wX0gnle+ROx8MQY3BhZEkAAAAAAAAAAAAAAAI0anVtYgAAACdqdW1kYzJjbAARABCAAACqADibcQNjMnBhLmNsYWltLnYyAAAAAgVjYm9ypmppbnN0YW5jZUlEeCx4bXA6aWlkOmY0YjU5ZDA5LWFjMDktNGYyMC1iYjQxLTU1ZDAyZmM2ZGJiNnRjbGFpbV9nZW5lcmF0b3JfaW5mb6NkbmFtZWpyZWNyYWZ0LmFpZ3ZlcnNpb254KDgxY2U4MmUyYzVjM2NiZmJlOGM2ZmJlMTc5ZDVmOGQ5MWM0MDljZTF3b3JnLmNvbnRlbnRhdXRoLmMycGFfcnNmMC45MC43aXNpZ25hdHVyZXhNc2VsZiNqdW1iZj0vYzJwYS91cm46YzJwYTo5NTI4NzdhZC1iMzc5LTQ3YTItODcxMS01MDg0OTAxNWUyNWYvYzJwYS5zaWduYXR1cmVyY3JlYXRlZF9hc3NlcnRpb25zgqJjdXJseCpzZWxmI2p1bWJmPWMycGEuYXNzZXJ0aW9ucy9jMnBhLmFjdGlvbnMudjJkaGFzaFggDJgaOpQdaqMDHvjCy55qtYeG3SPuxXZuiKu1DpVWtB+iY3VybHgpc2VsZiNqdW1iZj1jMnBhLmFzc2VydGlvbnMvYzJwYS5oYXNoLmRhdGFkaGFzaFgg/jNKq5UDRT0tYaf5k6TO+m5Ik9DxpXltQ2EFiHSI2WJoZGM6dGl0bGV4GlJlY3JhZnQgQUkgR2VuZXJhdGVkIEltYWdlY2FsZ2ZzaGEyNTYAAAfcanVtYgAAAChqdW1kYzJjcwARABCAAACqADibcQNjMnBhLnNpZ25hdHVyZQAAAAesY2JvctKEWQOwogEmGCGCWQHnMIIB4zCCAYmgAwIBAgIJALfeWmNDUW56MAoGCCqGSM49BAMCMEAxHzAdBgNVBAMMFlJlY3JhZnQgU3RhZ2luZyBEZXYgQ0ExEDAOBgNVBAoMB1JlY3JhZnQxCzAJBgNVBAYTAlVTMB4XDTI2MDYxMjE5NDM1MFoXDTI3MDYxMjE5NDM1MFowNzELMAkGA1UEBhMCVVMxEzARBgNVBAoTClJlY3JhZnQgQUkxEzARBgNVBAMTCnJlY3JhZnQuYWkwWTATBgcqhkjOPQIBBggqhkjOPQMBBwNCAARKaTVbACsg/DeG3LeOxYdID/VA6EFG73E6Oknb+KIiCFJygRUz4ueN2z/t2qYb6CIUvS8RvgOiiClfoqsYtw81o3UwczAMBgNVHRMBAf8EAjAAMA4GA1UdDwEB/wQEAwIGwDATBgNVHSUEDDAKBggrBgEFBQcDBDAdBgNVHQ4EFgQULzHpBen96SL1y4IPHa8MkMshXf0wHwYDVR0jBBgwFoAUAgsqOBrKqpdK//m/kxZo7ZR4ebcwCgYIKoZIzj0EAwIDSAAwRQIgU8hKW0aXvvk8SQgVFNkax69Ym9ae8GsT2RZTQw+B51ACIQC0D4BkEoRD4N0r2ZRkNy0HZaW3WICy/QZGN95ilF4yzFkBvTCCAbkwggFfoAMCAQICCQCc+Wg7T6ATbzAKBggqhkjOPQQDAjBAMR8wHQYDVQQDDBZSZWNyYWZ0IFN0YWdpbmcgRGV2IENBMRAwDgYDVQQKDAdSZWNyYWZ0MQswCQYDVQQGEwJVUzAeFw0yNjA2MTIxOTQwMTZaFw0yODA2MTExOTQwMTZaMEAxHzAdBgNVBAMMFlJlY3JhZnQgU3RhZ2luZyBEZXYgQ0ExEDAOBgNVBAoMB1JlY3JhZnQxCzAJBgNVBAYTAlVTMFkwEwYHKoZIzj0CAQYIKoZIzj0DAQcDQgAEQ9IQBlcVbKaKPYrQSfOhL/00s7xUDC7RinIuLO/I1k99y9yh6oWF9kPxaP+tx1v1PeOL3yrVquJ730H0ZGiDyqNCMEAwDwYDVR0TAQH/BAUwAwEB/zAOBgNVHQ8BAf8EBAMCAYYwHQYDVR0OBBYEFAILKjgayqqXSv/5v5MWaO2UeHm3MAoGCCqGSM49BAMCA0gAMEUCIFQwNImLlYDeQhjgF+ZiqTbgcuzSqmOJw3Q2lQ/hu83FAiEA9O8cLm/xfoVLqB4jtdbuHzi3WL+p2RN+DRGkwpYswVuhY3BhZFkDpAAAAAAAAAAAAAAAAAAAAAAAAAAAAAAAAAAAAAAAAAAAAAAAAAAAAAAAAAAAAAAAAAAAAAAAAAAAAAAAAAAAAAAAAAAAAAAAAAAAAAAAAAAAAAAAAAAAAAAAAAAAAAAAAAAAAAAAAAAAAAAAAAAAAAAAAAAAAAAAAAAAAAAAAAAAAAAAAAAAAAAAAAAAAAAAAAAAAAAAAAAAAAAAAAAAAAAAAAAAAAAAAAAAAAAAAAAAAAAAAAAAAAAAAAAAAAAAAAAAAAAAAAAAAAAAAAAAAAAAAAAAAAAAAAAAAAAAAAAAAAAAAAAAAAAAAAAAAAAAAAAAAAAAAAAAAAAAAAAAAAAAAAAAAAAAAAAAAAAAAAAAAAAAAAAAAAAAAAAAAAAAAAAAAAAAAAAAAAAAAAAAAAAAAAAAAAAAAAAAAAAAAAAAAAAAAAAAAAAAAAAAAAAAAAAAAAAAAAAAAAAAAAAAAAAAAAAAAAAAAAAAAAAAAAAAAAAAAAAAAAAAAAAAAAAAAAAAAAAAAAAAAAAAAAAAAAAAAAAAAAAAAAAAAAAAAAAAAAAAAAAAAAAAAAAAAAAAAAAAAAAAAAAAAAAAAAAAAAAAAAAAAAAAAAAAAAAAAAAAAAAAAAAAAAAAAAAAAAAAAAAAAAAAAAAAAAAAAAAAAAAAAAAAAAAAAAAAAAAAAAAAAAAAAAAAAAAAAAAAAAAAAAAAAAAAAAAAAAAAAAAAAAAAAAAAAAAAAAAAAAAAAAAAAAAAAAAAAAAAAAAAAAAAAAAAAAAAAAAAAAAAAAAAAAAAAAAAAAAAAAAAAAAAAAAAAAAAAAAAAAAAAAAAAAAAAAAAAAAAAAAAAAAAAAAAAAAAAAAAAAAAAAAAAAAAAAAAAAAAAAAAAAAAAAAAAAAAAAAAAAAAAAAAAAAAAAAAAAAAAAAAAAAAAAAAAAAAAAAAAAAAAAAAAAAAAAAAAAAAAAAAAAAAAAAAAAAAAAAAAAAAAAAAAAAAAAAAAAAAAAAAAAAAAAAAAAAAAAAAAAAAAAAAAAAAAAAAAAAAAAAAAAAAAAAAAAAAAAAAAAAAAAAAAAAAAAAAAAAAAAAAAAAAAAAAAAAAAAAAAAAAAAAAAAAAAAAAAAAAAAAAAAAAAAAAAAAAAAAAAAAAAAAAAAAAAAAAAAAAAAAAAAAAAAAAAAAAAAAAAAAAAAAAAAAAAAAAAAAAAAAAAAAAAAAAAAAAAAAAAAAAAAAAAAAAAAAAAAAAAAAA9lhANRu9GoRD21cA3zjN16CWwP3gLqUCGwnQ2nKlZyZAH34xYtgebfez/dBU7BB1qK3eH87OB++OtiIUSWLVKNLQUQAAFEFqdW1iAAAAR2p1bWRjMm1hABEAEIAAAKoAOJtxA3VybjpjMnBhOjRiMWQ5MTExLTg0Y2YtNGFmYS05MmM1LWM5NTI1ZGZjNjdhMAAAAAmAanVtYgAAAClqdW1kYzJhcwARABCAAACqADibcQNjMnBhLmFzc2VydGlvbnMAAAAGOmp1bWIAAABEanVtZGNib3IAEQAQgAAAqgA4m3ETYzJwYS5pbmdyZWRpZW50LnYzAAAAABhjMnNoPtk35OEF7v9LbOTglkzbogAABe5jYm9yp2xyZWxhdGlvbnNoaXBocGFyZW50T2ZoZGM6dGl0bGVmc291cmNlaWRjOmZvcm1hdG1pbWFnZS9zdmcreG1scXZhbGlkYXRpb25SZXN1bHRzoW5hY3RpdmVNYW5pZmVzdKNnc3VjY2Vzc4WjZGNvZGV4HWNsYWltU2lnbmF0dXJlLmluc2lkZVZhbGlkaXR5Y3VybHhNc2VsZiNqdW1iZj0vYzJwYS91cm46YzJwYTo5NTI4NzdhZC1iMzc5LTQ3YTItODcxMS01MDg0OTAxNWUyNWYvYzJwYS5zaWduYXR1cmVrZXhwbGFuYXRpb251Y2xhaW0gc2lnbmF0dXJlIHZhbGlko2Rjb2RleBhjbGFpbVNpZ25hdHVyZS52YWxpZGF0ZWRjdXJseE1zZWxmI2p1bWJmPS9jMnBhL3VybjpjMnBhOjk1Mjg3N2FkLWIzNzktNDdhMi04NzExLTUwODQ5MDE1ZTI1Zi9jMnBhLnNpZ25hdHVyZWtleHBsYW5hdGlvbnVjbGFpbSBzaWduYXR1cmUgdmFsaWSjZGNvZGV4GWFzc2VydGlvbi5oYXNoZWRVUkkubWF0Y2hjdXJseF5zZWxmI2p1bWJmPS9jMnBhL3VybjpjMnBhOjk1Mjg3N2FkLWIzNzktNDdhMi04NzExLTUwODQ5MDE1ZTI1Zi9jMnBhLmFzc2VydGlvbnMvYzJwYS5hY3Rpb25zLnYya2V4cGxhbmF0aW9ueD5oYXNoZWQgdXJpIG1hdGNoZWQ6IHNlbGYjanVtYmY9YzJwYS5hc3NlcnRpb25zL2MycGEuYWN0aW9ucy52MqNkY29kZXgZYXNzZXJ0aW9uLmhhc2hlZFVSSS5tYXRjaGN1cmx4XXNlbGYjanVtYmY9L2MycGEvdXJuOmMycGE6OTUyODc3YWQtYjM3OS00N2EyLTg3MTEtNTA4NDkwMTVlMjVmL2MycGEuYXNzZXJ0aW9ucy9jMnBhLmhhc2guZGF0YWtleHBsYW5hdGlvbng9aGFzaGVkIHVyaSBtYXRjaGVkOiBzZWxmI2p1bWJmPWMycGEuYXNzZXJ0aW9ucy9jMnBhLmhhc2guZGF0YaNkY29kZXgYYXNzZXJ0aW9uLmRhdGFIYXNoLm1hdGNoY3VybHhdc2VsZiNqdW1iZj0vYzJwYS91cm46YzJwYTo5NTI4NzdhZC1iMzc5LTQ3YTItODcxMS01MDg0OTAxNWUyNWYvYzJwYS5hc3NlcnRpb25zL2MycGEuaGFzaC5kYXRha2V4cGxhbmF0aW9ub2RhdGEgaGFzaCB2YWxpZG1pbmZvcm1hdGlvbmFsgGdmYWlsdXJlgaNkY29kZXgbc2lnbmluZ0NyZWRlbnRpYWwudW50cnVzdGVkY3VybHhNc2VsZiNqdW1iZj0vYzJwYS91cm46YzJwYTo5NTI4NzdhZC1iMzc5LTQ3YTItODcxMS01MDg0OTAxNWUyNWYvYzJwYS5zaWduYXR1cmVrZXhwbGFuYXRpb254HXNpZ25pbmcgY2VydGlmaWNhdGUgdW50cnVzdGVkamluc3RhbmNlSUR4LHhtcDppaWQ6OTk1MmI1YzMtZjA2YS00MjVhLTg2NzktODQ1YjllN2FiOGRmbmFjdGl2ZU1hbmlmZXN0o2N1cmx4PnNlbGYjanVtYmY9L2MycGEvdXJuOmMycGE6OTUyODc3YWQtYjM3OS00N2EyLTg3MTEtNTA4NDkwMTVlMjVmY2FsZ2ZzaGEyNTZkaGFzaFggtzZw93djZ1f00dyDQfbmEeqT0w7N6KZVURUAFU1EJTpuY2xhaW1TaWduYXR1cmWjY3VybHhNc2VsZiNqdW1iZj0vYzJwYS91cm46YzJwYTo5NTI4NzdhZC1iMzc5LTQ3YTItODcxMS01MDg0OTAxNWUyNWYvYzJwYS5zaWduYXR1cmVjYWxnZnNoYTI1NmRoYXNoWCA/t/NvycqO3BkCs5Nww/9//NKxhJ2xipCBxIaWoPRujgAAAe5qdW1iAAAAQWp1bWRjYm9yABEAEIAAAKoAOJtxE2MycGEuYWN0aW9ucy52MgAAAAAYYzJzaNPixFWwC8kU4hWHH9ixKT8AAAGlY2JvcqFnYWN0aW9uc4KiZmFjdGlvbmtjMnBhLm9wZW5lZGpwYXJhbWV0ZXJzoWtpbmdyZWRpZW50c4GiY3VybHgtc2VsZiNqdW1iZj1jMnBhLmFzc2VydGlvbnMvYzJwYS5pbmdyZWRpZW50LnYzZGhhc2hYIB1qXdRXAwqOwhv3uJQN89es8kiAysPMb8D/9u3Zer18pGZhY3Rpb25sYzJwYS5jcmVhdGVkanBhcmFtZXRlcnOha2luZ3JlZGllbnRzgaJjdXJseC1zZWxmI2p1bWJmPWMycGEuYXNzZXJ0aW9ucy9jMnBhLmluZ3JlZGllbnQudjNkaGFzaFggHWpd1FcDCo7CG/e4lA3z16zySIDKw8xvwP/27dl6vXxxZGlnaXRhbFNvdXJjZVR5cGV4QWh0dHA6Ly9jdi5pcHRjLm9yZy9uZXdzY29kZXMvZGlnaXRhbHNvdXJjZXR5cGUvY29tcG9zaXRlU3ludGhldGlja2Rlc2NyaXB0aW9ueB9Db21wb3NlZCBpbiB0aGUgUmVjcmFmdCBlZGl0b3IuAAABJ2p1bWIAAABAanVtZGNib3IAEQAQgAAAqgA4m3ETYzJwYS5oYXNoLmRhdGEAAAAAGGMyc2jLks9FzcxF98Hv3j+faDFwAAAA32Nib3KlamV4Y2x1c2lvbnOBomVzdGFydBitZmxlbmd0aBkr5mRuYW1lbmp1bWJmIG1hbmlmZXN0Y2FsZ2ZzaGEyNTZkaGFzaFgg2AE8YdtnOK8EjC+CZYLOjTGJ6Welr+j3TZMXpAj+GIBjcGFkWGsAAAAAAAAAAAAAAAAAAAAAAAAAAAAAAAAAAAAAAAAAAAAAAAAAAAAAAAAAAAAAAAAAAAAAAAAAAAAAAAAAAAAAAAAAAAAAAAAAAAAAAAAAAAAAAAAAAAAAAAAAAAAAAAAAAAAAAAAAAAAAAAAAApZqdW1iAAAAJ2p1bWRjMmNsABEAEIAAAKoAOJtxA2MycGEuY2xhaW0udjIAAAACZ2Nib3Knamluc3RhbmNlSUR4LHhtcDppaWQ6MzJlZDU3YmQtNmUxNy00ZDE3LTkyZTItNTBjM2Y0ODg2ZDg3dGNsYWltX2dlbmVyYXRvcl9pbmZvo2RuYW1lanJlY3JhZnQuYWlndmVyc2lvbngoODFjZTgyZTJjNWMzY2JmYmU4YzZmYmUxNzlkNWY4ZDkxYzQwOWNlMXdvcmcuY29udGVudGF1dGguYzJwYV9yc2YwLjkwLjdpc2lnbmF0dXJleE1zZWxmI2p1bWJmPS9jMnBhL3VybjpjMnBhOjRiMWQ5MTExLTg0Y2YtNGFmYS05MmM1LWM5NTI1ZGZjNjdhMC9jMnBhLnNpZ25hdHVyZXJjcmVhdGVkX2Fzc2VydGlvbnOComN1cmx4KnNlbGYjanVtYmY9YzJwYS5hc3NlcnRpb25zL2MycGEuYWN0aW9ucy52MmRoYXNoWCBd/JCKVXwyhwMPHdHvbBjuIYOoXZcxE/KwBG6DciGDQaJjdXJseClzZWxmI2p1bWJmPWMycGEuYXNzZXJ0aW9ucy9jMnBhLmhhc2guZGF0YWRoYXNoWCBcgtlOVgcQu3nMuAiYI0pnULS29v/mvXwmkZ1p4kS49XNnYXRoZXJlZF9hc3NlcnRpb25zgaJjdXJseC1zZWxmI2p1bWJmPWMycGEuYXNzZXJ0aW9ucy9jMnBhLmluZ3JlZGllbnQudjNkaGFzaFggHWpd1FcDCo7CG/e4lA3z16zySIDKw8xvwP/27dl6vXxoZGM6dGl0bGVtUmVjcmFmdCBJbWFnZWNhbGdmc2hhMjU2AAAH3Gp1bWIAAAAoanVtZGMyY3MAEQAQgAAAqgA4m3EDYzJwYS5zaWduYXR1cmUAAAAHrGNib3LShFkDsKIBJhghglkB5zCCAeMwggGJoAMCAQICCQC33lpjQ1FuejAKBggqhkjOPQQDAjBAMR8wHQYDVQQDDBZSZWNyYWZ0IFN0YWdpbmcgRGV2IENBMRAwDgYDVQQKDAdSZWNyYWZ0MQswCQYDVQQGEwJVUzAeFw0yNjA2MTIxOTQzNTBaFw0yNzA2MTIxOTQzNTBaMDcxCzAJBgNVBAYTAlVTMRMwEQYDVQQKEwpSZWNyYWZ0IEFJMRMwEQYDVQQDEwpyZWNyYWZ0LmFpMFkwEwYHKoZIzj0CAQYIKoZIzj0DAQcDQgAESmk1WwArIPw3hty3jsWHSA/1QOhBRu9xOjpJ2/iiIghScoEVM+Lnjds/7dqmG+giFL0vEb4DoogpX6KrGLcPNaN1MHMwDAYDVR0TAQH/BAIwADAOBgNVHQ8BAf8EBAMCBsAwEwYDVR0lBAwwCgYIKwYBBQUHAwQwHQYDVR0OBBYEFC8x6QXp/eki9cuCDx2vDJDLIV39MB8GA1UdIwQYMBaAFAILKjgayqqXSv/5v5MWaO2UeHm3MAoGCCqGSM49BAMCA0gAMEUCIFPISltGl775PEkIFRTZGsevWJvWnvBrE9kWU0MPgedQAiEAtA+AZBKEQ+DdK9mUZDctB2Wlt1iAsv0GRjfeYpReMsxZAb0wggG5MIIBX6ADAgECAgkAnPloO0+gE28wCgYIKoZIzj0EAwIwQDEfMB0GA1UEAwwWUmVjcmFmdCBTdGFnaW5nIERldiBDQTEQMA4GA1UECgwHUmVjcmFmdDELMAkGA1UEBhMCVVMwHhcNMjYwNjEyMTk0MDE2WhcNMjgwNjExMTk0MDE2WjBAMR8wHQYDVQQDDBZSZWNyYWZ0IFN0YWdpbmcgRGV2IENBMRAwDgYDVQQKDAdSZWNyYWZ0MQswCQYDVQQGEwJVUzBZMBMGByqGSM49AgEGCCqGSM49AwEHA0IABEPSEAZXFWymij2K0EnzoS/9NLO8VAwu0YpyLizvyNZPfcvcoeqFhfZD8Wj/rcdb9T3ji98q1arie99B9GRog8qjQjBAMA8GA1UdEwEB/wQFMAMBAf8wDgYDVR0PAQH/BAQDAgGGMB0GA1UdDgQWBBQCCyo4Gsqql0r/+b+TFmjtlHh5tzAKBggqhkjOPQQDAgNIADBFAiBUMDSJi5WA3kIY4BfmYqk24HLs0qpjicN0NpUP4bvNxQIhAPTvHC5v8X6FS6geI7XW7h84t1i/qdkTfg0RpMKWLMFboWNwYWRZA6QAAAAAAAAAAAAAAAAAAAAAAAAAAAAAAAAAAAAAAAAAAAAAAAAAAAAAAAAAAAAAAAAAAAAAAAAAAAAAAAAAAAAAAAAAAAAAAAAAAAAAAAAAAAAAAAAAAAAAAAAAAAAAAAAAAAAAAAAAAAAAAAAAAAAAAAAAAAAAAAAAAAAAAAAAAAAAAAAAAAAAAAAAAAAAAAAAAAAAAAAAAAAAAAAAAAAAAAAAAAAAAAAAAAAAAAAAAAAAAAAAAAAAAAAAAAAAAAAAAAAAAAAAAAAAAAAAAAAAAAAAAAAAAAAAAAAAAAAAAAAAAAAAAAAAAAAAAAAAAAAAAAAAAAAAAAAAAAAAAAAAAAAAAAAAAAAAAAAAAAAAAAAAAAAAAAAAAAAAAAAAAAAAAAAAAAAAAAAAAAAAAAAAAAAAAAAAAAAAAAAAAAAAAAAAAAAAAAAAAAAAAAAAAAAAAAAAAAAAAAAAAAAAAAAAAAAAAAAAAAAAAAAAAAAAAAAAAAAAAAAAAAAAAAAAAAAAAAAAAAAAAAAAAAAAAAAAAAAAAAAAAAAAAAAAAAAAAAAAAAAAAAAAAAAAAAAAAAAAAAAAAAAAAAAAAAAAAAAAAAAAAAAAAAAAAAAAAAAAAAAAAAAAAAAAAAAAAAAAAAAAAAAAAAAAAAAAAAAAAAAAAAAAAAAAAAAAAAAAAAAAAAAAAAAAAAAAAAAAAAAAAAAAAAAAAAAAAAAAAAAAAAAAAAAAAAAAAAAAAAAAAAAAAAAAAAAAAAAAAAAAAAAAAAAAAAAAAAAAAAAAAAAAAAAAAAAAAAAAAAAAAAAAAAAAAAAAAAAAAAAAAAAAAAAAAAAAAAAAAAAAAAAAAAAAAAAAAAAAAAAAAAAAAAAAAAAAAAAAAAAAAAAAAAAAAAAAAAAAAAAAAAAAAAAAAAAAAAAAAAAAAAAAAAAAAAAAAAAAAAAAAAAAAAAAAAAAAAAAAAAAAAAAAAAAAAAAAAAAAAAAAAAAAAAAAAAAAAAAAAAAAAAAAAAAAAAAAAAAAAAAAAAAAAAAAAAAAAAAAAAAAAAAAAAAAAAAAAAAAAAAAAAAAAAAAAAAAAAAAAAAAAAAAAAAAAAAAAAAAAAAAAAAAAAAAAAAAAAAAAAAAAAAAAAAAAAAAAAAAAAAAAAAAAAAAAAAAAAAAAAAAAAAAAAAAAAAAAAAAAAAAAAAAAAAAAAAAAAAAAAAAAAAAAAAAAAAAAAAAAAAAAAAAAAAAAAAAAAAAAAAAPZYQNQKeIzbyqsBHWw8+hJb6mbYFTN8agDp4m2liq0evaPIqjETwc5s94vAmmezd5jBmuEVGf318IzK7aTrgy444Oc=</c2pa:manifest></metadata><path fill="#EEF2FF" d="M517.722 140.76C541.983 141.034 567.513 140.552 591.888 140.561L706.196 140.82C731.239 140.759 753.769 140.237 777.96 147.772C802.042 155.273 820.055 163.908 838.345 181.82C860.069 202.847 876.876 230.854 881.76 260.995C884.18 275.927 884.008 294.653 884.146 309.903C884.403 326.657 884.464 343.413 884.331 360.168L885.057 466.646L883.525 635.991L883.403 704.426C883.372 719.24 883.43 734.181 882.919 748.981C881.737 783.175 865.067 816.893 841.093 840.841C821.795 859.767 797.49 872.784 771.041 878.358C768.047 879.013 764.825 879.317 761.736 879.643C741.626 881.268 719.827 882.093 699.67 881.079C678.252 880.002 658.229 881.529 636.903 881.854L504.958 882.546L333.556 885.885C318.878 886.182 305.109 884.924 290.608 883.311C283.448 883.056 276.571 882.643 269.439 881.967C208.796 876.221 159.329 827.657 145.25 769.52C139.104 744.137 140.987 711.524 141.213 685.203L141.417 625.869L141.443 436.694L141.027 334.018C140.794 275.909 137.592 232.933 181.235 187.597C222.884 144.331 259.47 141.811 315.208 141.147C334.925 140.923 354.643 140.854 374.361 140.939C422.148 141.215 469.936 141.155 517.722 140.76Z"/><path fill="#6366F1" d="M505.444 248.188C536.869 245.445 563.663 258.82 581.22 284.886C597.302 308.762 598.054 343.663 581.835 367.634C572.798 380.489 561.375 386.572 558.168 402.996C552.86 428.696 577.826 452.835 602.207 436.873C614.338 428.931 613.472 416.495 615.27 404.266C621.569 361.401 662.456 333.636 704.736 339.95C725.743 343.144 744.622 354.551 757.218 371.664C769.969 389.155 775.541 410.433 772.027 431.877C766.452 466.502 739.106 493.536 704.418 498.712C688.667 501.068 668.903 496.244 654.966 507.242C642.9 516.763 629.435 531.633 618.351 542.663L586.267 574.908C575.466 585.773 561.749 596.918 559.288 612.96C556.257 632.722 570.431 642.555 580.968 656.46C591.848 670.816 595.735 693.239 592.622 710.803C588.38 733.394 576.289 750.821 557.703 763.92C548.798 770.039 536.872 774.403 526.251 776.115C504.97 779.497 483.22 774.232 465.842 761.492C448.725 749.156 437.206 730.529 433.815 709.705C431.184 692.505 435.03 669.953 445.588 656.153C458.346 639.478 469.68 630.319 466.014 606.971C464.034 594.585 457.221 583.49 447.069 576.122C430.961 564.154 409.428 562.45 391.639 571.735C387.04 574.119 382.857 577.527 378.623 580.521C350.875 600.141 312.253 597.645 285.419 577.769C267.681 564.86 255.932 545.314 252.854 523.593C249.791 502.543 255.297 481.144 268.14 464.186C297.023 426.105 349.922 418.89 386.997 449.626C396.375 457.401 411.605 460.49 423.493 458.819C436.564 457.093 448.363 450.1 456.153 439.462C467.801 423.836 469.999 399.963 458.279 384.439C445.293 367.238 436.93 360.183 433.77 336.987C431.138 316.591 436.647 295.979 449.104 279.616C463.753 260.575 482.023 251.253 505.444 248.188Z"/><path fill="#EEF2FF" d="M510.503 278.71C523.521 277.582 537.03 283.485 546.08 291.435C567.194 309.983 569.003 341.592 548.244 360.843C521.199 386.924 518.742 432.335 548.157 457.725C572.893 479.077 604.7 477.575 628.076 455.124C633.929 449.043 641.045 438.296 642.91 429.946C646.75 412.753 643.886 401.908 656.447 387.487C665.102 377.568 677.33 371.475 690.461 370.538C703.813 369.796 716.918 374.348 726.935 383.208C736.831 392.093 742.256 403.848 742.922 417.098C743.649 430.093 739.089 442.83 730.278 452.409C721.399 462.166 709.002 467.991 695.823 468.597C689.187 468.893 682.344 468.3 675.766 468.583C662.545 469.115 649.718 473.229 638.653 480.484C632.089 484.817 613.339 504.415 606.499 511.245L572.804 545.412C563.793 554.458 554.53 563.449 545.872 572.619C519.957 600.068 523.92 643.021 551.046 668.048C558.226 674.673 562.599 686.801 562.928 696.524C563.397 710.357 558.29 721.332 549.081 731.385C540.401 739.72 530.768 745.015 518.629 746.282C505.756 747.508 492.911 743.674 482.816 735.593C462.899 719.427 457.642 691.856 473.412 670.648C476.28 666.846 480.389 663.492 483.181 659.696C525.101 602.686 471.175 523.906 403.384 535.49C392.949 537.274 384.179 540.483 374.848 545.551C368.735 548.871 363.424 553.571 357.472 556.919C326.257 574.36 286.972 551.91 283.675 517.004C279.923 477.273 320.381 449.394 356.017 466.378C362.233 469.341 365.594 473.218 371.045 476.896C386.754 487.375 405.598 492.111 424.395 490.304C445.993 488.135 465.851 477.493 479.617 460.71C502.633 432.416 503.592 396.35 484.115 365.956C479.47 358.77 471.183 353.132 467.94 345.021C455.116 312.953 477.355 281.414 510.503 278.71Z"/></svg>