<?xml version="1.0" encoding="utf-8" ?><svg xmlns="http://www.w3.org/2000/svg" xmlns:xlink="http://www.w3.org/1999/xlink" width="1024" height="1024" viewBox="0 0 1024 1024"><metadata><c2pa:manifest xmlns:c2pa="http://c2pa.org/manifest">AAAgqGp1bWIAAAAeanVtZGMycGEAEQAQgAAAqgA4m3EDYzJwYQAAAAxBanVtYgAAAEdqdW1kYzJtYQARABCAAACqADibcQN1cm46YzJwYTozNDZhZTE3Zi1hNjY0LTRlOTAtODYzMC1kMTYzZTg1NzYzMDIAAAAB4mp1bWIAAAApanVtZGMyYXMAEQAQgAAAqgA4m3EDYzJwYS5hc3NlcnRpb25zAAAAAO1qdW1iAAAAQWp1bWRjYm9yABEAEIAAAKoAOJtxE2MycGEuYWN0aW9ucy52MgAAAAAYYzJzaOBwakonbq9fl0zuejjoX98AAACkY2JvcqFnYWN0aW9uc4GjZmFjdGlvbmxjMnBhLmNyZWF0ZWRxZGlnaXRhbFNvdXJjZVR5cGV4Rmh0dHA6Ly9jdi5pcHRjLm9yZy9uZXdzY29kZXMvZGlnaXRhbHNvdXJjZXR5cGUvdHJhaW5lZEFsZ29yaXRobWljTWVkaWFrZGVzY3JpcHRpb252Q3JlYXRlZCBieSBSZWNyYWZ0IEFJLgAAAMRqdW1iAAAAQGp1bWRjYm9yABEAEIAAAKoAOJtxE2MycGEuaGFzaC5kYXRhAAAAABhjMnNoGirM0qwgLQk1YeaPJUX6rAAAAHxjYm9ypWpleGNsdXNpb25zgaJlc3RhcnQY22ZsZW5ndGgZEIxkbmFtZW5qdW1iZiBtYW5pZmVzdGNhbGdmc2hhMjU2ZGhhc2hYIPeffpL82NY3cfpD6iuA3s2rB28gc5CWu+jpMzcHr+wyY3BhZEkAAAAAAAAAAAAAAAI0anVtYgAAACdqdW1kYzJjbAARABCAAACqADibcQNjMnBhLmNsYWltLnYyAAAAAgVjYm9ypmppbnN0YW5jZUlEeCx4bXA6aWlkOmE2NDQyOWM2LTAzZTYtNDBjNS05YWJhLWYwMDExYmJlODQ4YnRjbGFpbV9nZW5lcmF0b3JfaW5mb6NkbmFtZWpyZWNyYWZ0LmFpZ3ZlcnNpb254KDgxY2U4MmUyYzVjM2NiZmJlOGM2ZmJlMTc5ZDVmOGQ5MWM0MDljZTF3b3JnLmNvbnRlbnRhdXRoLmMycGFfcnNmMC45MC43aXNpZ25hdHVyZXhNc2VsZiNqdW1iZj0vYzJwYS91cm46YzJwYTozNDZhZTE3Zi1hNjY0LTRlOTAtODYzMC1kMTYzZTg1NzYzMDIvYzJwYS5zaWduYXR1cmVyY3JlYXRlZF9hc3NlcnRpb25zgqJjdXJseCpzZWxmI2p1bWJmPWMycGEuYXNzZXJ0aW9ucy9jMnBhLmFjdGlvbnMudjJkaGFzaFggP20KttUln2RuWvLY2SysSxeaVOyqJT4uxpPPPoeERQKiY3VybHgpc2VsZiNqdW1iZj1jMnBhLmFzc2VydGlvbnMvYzJwYS5oYXNoLmRhdGFkaGFzaFggBwcDuv1XxSoyl0xSCRl2/uUlHCpFZwdk0wQQiQmqAMtoZGM6dGl0bGV4GlJlY3JhZnQgQUkgR2VuZXJhdGVkIEltYWdlY2FsZ2ZzaGEyNTYAAAfcanVtYgAAAChqdW1kYzJjcwARABCAAACqADibcQNjMnBhLnNpZ25hdHVyZQAAAAesY2JvctKEWQOwogEmGCGCWQHnMIIB4zCCAYmgAwIBAgIJALfeWmNDUW56MAoGCCqGSM49BAMCMEAxHzAdBgNVBAMMFlJlY3JhZnQgU3RhZ2luZyBEZXYgQ0ExEDAOBgNVBAoMB1JlY3JhZnQxCzAJBgNVBAYTAlVTMB4XDTI2MDYxMjE5NDM1MFoXDTI3MDYxMjE5NDM1MFowNzELMAkGA1UEBhMCVVMxEzARBgNVBAoTClJlY3JhZnQgQUkxEzARBgNVBAMTCnJlY3JhZnQuYWkwWTATBgcqhkjOPQIBBggqhkjOPQMBBwNCAARKaTVbACsg/DeG3LeOxYdID/VA6EFG73E6Oknb+KIiCFJygRUz4ueN2z/t2qYb6CIUvS8RvgOiiClfoqsYtw81o3UwczAMBgNVHRMBAf8EAjAAMA4GA1UdDwEB/wQEAwIGwDATBgNVHSUEDDAKBggrBgEFBQcDBDAdBgNVHQ4EFgQULzHpBen96SL1y4IPHa8MkMshXf0wHwYDVR0jBBgwFoAUAgsqOBrKqpdK//m/kxZo7ZR4ebcwCgYIKoZIzj0EAwIDSAAwRQIgU8hKW0aXvvk8SQgVFNkax69Ym9ae8GsT2RZTQw+B51ACIQC0D4BkEoRD4N0r2ZRkNy0HZaW3WICy/QZGN95ilF4yzFkBvTCCAbkwggFfoAMCAQICCQCc+Wg7T6ATbzAKBggqhkjOPQQDAjBAMR8wHQYDVQQDDBZSZWNyYWZ0IFN0YWdpbmcgRGV2IENBMRAwDgYDVQQKDAdSZWNyYWZ0MQswCQYDVQQGEwJVUzAeFw0yNjA2MTIxOTQwMTZaFw0yODA2MTExOTQwMTZaMEAxHzAdBgNVBAMMFlJlY3JhZnQgU3RhZ2luZyBEZXYgQ0ExEDAOBgNVBAoMB1JlY3JhZnQxCzAJBgNVBAYTAlVTMFkwEwYHKoZIzj0CAQYIKoZIzj0DAQcDQgAEQ9IQBlcVbKaKPYrQSfOhL/00s7xUDC7RinIuLO/I1k99y9yh6oWF9kPxaP+tx1v1PeOL3yrVquJ730H0ZGiDyqNCMEAwDwYDVR0TAQH/BAUwAwEB/zAOBgNVHQ8BAf8EBAMCAYYwHQYDVR0OBBYEFAILKjgayqqXSv/5v5MWaO2UeHm3MAoGCCqGSM49BAMCA0gAMEUCIFQwNImLlYDeQhjgF+ZiqTbgcuzSqmOJw3Q2lQ/hu83FAiEA9O8cLm/xfoVLqB4jtdbuHzi3WL+p2RN+DRGkwpYswVuhY3BhZFkDpAAAAAAAAAAAAAAAAAAAAAAAAAAAAAAAAAAAAAAAAAAAAAAAAAAAAAAAAAAAAAAAAAAAAAAAAAAAAAAAAAAAAAAAAAAAAAAAAAAAAAAAAAAAAAAAAAAAAAAAAAAAAAAAAAAAAAAAAAAAAAAAAAAAAAAAAAAAAAAAAAAAAAAAAAAAAAAAAAAAAAAAAAAAAAAAAAAAAAAAAAAAAAAAAAAAAAAAAAAAAAAAAAAAAAAAAAAAAAAAAAAAAAAAAAAAAAAAAAAAAAAAAAAAAAAAAAAAAAAAAAAAAAAAAAAAAAAAAAAAAAAAAAAAAAAAAAAAAAAAAAAAAAAAAAAAAAAAAAAAAAAAAAAAAAAAAAAAAAAAAAAAAAAAAAAAAAAAAAAAAAAAAAAAAAAAAAAAAAAAAAAAAAAAAAAAAAAAAAAAAAAAAAAAAAAAAAAAAAAAAAAAAAAAAAAAAAAAAAAAAAAAAAAAAAAAAAAAAAAAAAAAAAAAAAAAAAAAAAAAAAAAAAAAAAAAAAAAAAAAAAAAAAAAAAAAAAAAAAAAAAAAAAAAAAAAAAAAAAAAAAAAAAAAAAAAAAAAAAAAAAAAAAAAAAAAAAAAAAAAAAAAAAAAAAAAAAAAAAAAAAAAAAAAAAAAAAAAAAAAAAAAAAAAAAAAAAAAAAAAAAAAAAAAAAAAAAAAAAAAAAAAAAAAAAAAAAAAAAAAAAAAAAAAAAAAAAAAAAAAAAAAAAAAAAAAAAAAAAAAAAAAAAAAAAAAAAAAAAAAAAAAAAAAAAAAAAAAAAAAAAAAAAAAAAAAAAAAAAAAAAAAAAAAAAAAAAAAAAAAAAAAAAAAAAAAAAAAAAAAAAAAAAAAAAAAAAAAAAAAAAAAAAAAAAAAAAAAAAAAAAAAAAAAAAAAAAAAAAAAAAAAAAAAAAAAAAAAAAAAAAAAAAAAAAAAAAAAAAAAAAAAAAAAAAAAAAAAAAAAAAAAAAAAAAAAAAAAAAAAAAAAAAAAAAAAAAAAAAAAAAAAAAAAAAAAAAAAAAAAAAAAAAAAAAAAAAAAAAAAAAAAAAAAAAAAAAAAAAAAAAAAAAAAAAAAAAAAAAAAAAAAAAAAAAAAAAAAAAAAAAAAAAAAAAAAAAAAAAAAAAAAAAAAAAAAAAAAAAAAAAAAAAAAAAAAAAAAAAAAAAAAAAAAAAAAAAAAAAAAAAAAAAAAAAAAAAAAAAAAAAAAAAAAAAAAAAAAAAAAAAAAAAAAAAAAAAAAAAAAAAAA9lhA5yCno510aegt8Zx9Omss+O4YhMBhWM1ZeqqK2BFGJCBGTPGb4OXKqE7GpwYOB1VaQtlCc/zCkL0CQdQ5ZeLf8QAAFEFqdW1iAAAAR2p1bWRjMm1hABEAEIAAAKoAOJtxA3VybjpjMnBhOmJkMjJkNTkzLTQyNDctNDI0NC04ZmI5LTIyZmJiZmIwZDJiZQAAAAmAanVtYgAAAClqdW1kYzJhcwARABCAAACqADibcQNjMnBhLmFzc2VydGlvbnMAAAAGOmp1bWIAAABEanVtZGNib3IAEQAQgAAAqgA4m3ETYzJwYS5pbmdyZWRpZW50LnYzAAAAABhjMnNoyk6d9ARi/Kw0j5x3CKtOzgAABe5jYm9yp2xyZWxhdGlvbnNoaXBocGFyZW50T2ZoZGM6dGl0bGVmc291cmNlaWRjOmZvcm1hdG1pbWFnZS9zdmcreG1scXZhbGlkYXRpb25SZXN1bHRzoW5hY3RpdmVNYW5pZmVzdKNnc3VjY2Vzc4WjZGNvZGV4HWNsYWltU2lnbmF0dXJlLmluc2lkZVZhbGlkaXR5Y3VybHhNc2VsZiNqdW1iZj0vYzJwYS91cm46YzJwYTozNDZhZTE3Zi1hNjY0LTRlOTAtODYzMC1kMTYzZTg1NzYzMDIvYzJwYS5zaWduYXR1cmVrZXhwbGFuYXRpb251Y2xhaW0gc2lnbmF0dXJlIHZhbGlko2Rjb2RleBhjbGFpbVNpZ25hdHVyZS52YWxpZGF0ZWRjdXJseE1zZWxmI2p1bWJmPS9jMnBhL3VybjpjMnBhOjM0NmFlMTdmLWE2NjQtNGU5MC04NjMwLWQxNjNlODU3NjMwMi9jMnBhLnNpZ25hdHVyZWtleHBsYW5hdGlvbnVjbGFpbSBzaWduYXR1cmUgdmFsaWSjZGNvZGV4GWFzc2VydGlvbi5oYXNoZWRVUkkubWF0Y2hjdXJseF5zZWxmI2p1bWJmPS9jMnBhL3VybjpjMnBhOjM0NmFlMTdmLWE2NjQtNGU5MC04NjMwLWQxNjNlODU3NjMwMi9jMnBhLmFzc2VydGlvbnMvYzJwYS5hY3Rpb25zLnYya2V4cGxhbmF0aW9ueD5oYXNoZWQgdXJpIG1hdGNoZWQ6IHNlbGYjanVtYmY9YzJwYS5hc3NlcnRpb25zL2MycGEuYWN0aW9ucy52MqNkY29kZXgZYXNzZXJ0aW9uLmhhc2hlZFVSSS5tYXRjaGN1cmx4XXNlbGYjanVtYmY9L2MycGEvdXJuOmMycGE6MzQ2YWUxN2YtYTY2NC00ZTkwLTg2MzAtZDE2M2U4NTc2MzAyL2MycGEuYXNzZXJ0aW9ucy9jMnBhLmhhc2guZGF0YWtleHBsYW5hdGlvbng9aGFzaGVkIHVyaSBtYXRjaGVkOiBzZWxmI2p1bWJmPWMycGEuYXNzZXJ0aW9ucy9jMnBhLmhhc2guZGF0YaNkY29kZXgYYXNzZXJ0aW9uLmRhdGFIYXNoLm1hdGNoY3VybHhdc2VsZiNqdW1iZj0vYzJwYS91cm46YzJwYTozNDZhZTE3Zi1hNjY0LTRlOTAtODYzMC1kMTYzZTg1NzYzMDIvYzJwYS5hc3NlcnRpb25zL2MycGEuaGFzaC5kYXRha2V4cGxhbmF0aW9ub2RhdGEgaGFzaCB2YWxpZG1pbmZvcm1hdGlvbmFsgGdmYWlsdXJlgaNkY29kZXgbc2lnbmluZ0NyZWRlbnRpYWwudW50cnVzdGVkY3VybHhNc2VsZiNqdW1iZj0vYzJwYS91cm46YzJwYTozNDZhZTE3Zi1hNjY0LTRlOTAtODYzMC1kMTYzZTg1NzYzMDIvYzJwYS5zaWduYXR1cmVrZXhwbGFuYXRpb254HXNpZ25pbmcgY2VydGlmaWNhdGUgdW50cnVzdGVkamluc3RhbmNlSUR4LHhtcDppaWQ6OGUzZDNkNzQtYzQ5MS00ODdmLWI4NzctYzhkMzI4Njk3YzNlbmFjdGl2ZU1hbmlmZXN0o2N1cmx4PnNlbGYjanVtYmY9L2MycGEvdXJuOmMycGE6MzQ2YWUxN2YtYTY2NC00ZTkwLTg2MzAtZDE2M2U4NTc2MzAyY2FsZ2ZzaGEyNTZkaGFzaFggVCIGSJIq418mJ5XnRoRjs6dFGe6qxdDwNVRuKKmwDoVuY2xhaW1TaWduYXR1cmWjY3VybHhNc2VsZiNqdW1iZj0vYzJwYS91cm46YzJwYTozNDZhZTE3Zi1hNjY0LTRlOTAtODYzMC1kMTYzZTg1NzYzMDIvYzJwYS5zaWduYXR1cmVjYWxnZnNoYTI1NmRoYXNoWCBsLsYBdVqubcnNZQ2hN//PoOodI19e5Do94VmQnZG2TQAAAe5qdW1iAAAAQWp1bWRjYm9yABEAEIAAAKoAOJtxE2MycGEuYWN0aW9ucy52MgAAAAAYYzJzaGbk+E3twqo+A8e5/2mhQgEAAAGlY2JvcqFnYWN0aW9uc4KiZmFjdGlvbmtjMnBhLm9wZW5lZGpwYXJhbWV0ZXJzoWtpbmdyZWRpZW50c4GiY3VybHgtc2VsZiNqdW1iZj1jMnBhLmFzc2VydGlvbnMvYzJwYS5pbmdyZWRpZW50LnYzZGhhc2hYINGdyTow3IHdAmzUYlKGUxa0aF3gq6j118rQkdOWocbQpGZhY3Rpb25sYzJwYS5jcmVhdGVkanBhcmFtZXRlcnOha2luZ3JlZGllbnRzgaJjdXJseC1zZWxmI2p1bWJmPWMycGEuYXNzZXJ0aW9ucy9jMnBhLmluZ3JlZGllbnQudjNkaGFzaFgg0Z3JOjDcgd0CbNRiUoZTFrRoXeCrqPXXytCR05ahxtBxZGlnaXRhbFNvdXJjZVR5cGV4QWh0dHA6Ly9jdi5pcHRjLm9yZy9uZXdzY29kZXMvZGlnaXRhbHNvdXJjZXR5cGUvY29tcG9zaXRlU3ludGhldGlja2Rlc2NyaXB0aW9ueB9Db21wb3NlZCBpbiB0aGUgUmVjcmFmdCBlZGl0b3IuAAABJ2p1bWIAAABAanVtZGNib3IAEQAQgAAAqgA4m3ETYzJwYS5oYXNoLmRhdGEAAAAAGGMyc2jJ9zCG7KMZa9ukoYE/2UwzAAAA32Nib3KlamV4Y2x1c2lvbnOBomVzdGFydBitZmxlbmd0aBkr5mRuYW1lbmp1bWJmIG1hbmlmZXN0Y2FsZ2ZzaGEyNTZkaGFzaFgg1KPKEMObsoBCbchLettJUKmTb5HUjDoRvRcbYmB+tI5jcGFkWGsAAAAAAAAAAAAAAAAAAAAAAAAAAAAAAAAAAAAAAAAAAAAAAAAAAAAAAAAAAAAAAAAAAAAAAAAAAAAAAAAAAAAAAAAAAAAAAAAAAAAAAAAAAAAAAAAAAAAAAAAAAAAAAAAAAAAAAAAAAAAAAAAAApZqdW1iAAAAJ2p1bWRjMmNsABEAEIAAAKoAOJtxA2MycGEuY2xhaW0udjIAAAACZ2Nib3Knamluc3RhbmNlSUR4LHhtcDppaWQ6M2E4MzBiMTUtZjFhZS00YmYwLTgwYTYtMDBjMzNiMGJjOTUydGNsYWltX2dlbmVyYXRvcl9pbmZvo2RuYW1lanJlY3JhZnQuYWlndmVyc2lvbngoODFjZTgyZTJjNWMzY2JmYmU4YzZmYmUxNzlkNWY4ZDkxYzQwOWNlMXdvcmcuY29udGVudGF1dGguYzJwYV9yc2YwLjkwLjdpc2lnbmF0dXJleE1zZWxmI2p1bWJmPS9jMnBhL3VybjpjMnBhOmJkMjJkNTkzLTQyNDctNDI0NC04ZmI5LTIyZmJiZmIwZDJiZS9jMnBhLnNpZ25hdHVyZXJjcmVhdGVkX2Fzc2VydGlvbnOComN1cmx4KnNlbGYjanVtYmY9YzJwYS5hc3NlcnRpb25zL2MycGEuYWN0aW9ucy52MmRoYXNoWCBJMitYXnnlB8TjkSUAXTCWCoJDpzMvf1tdAY/U70ekCaJjdXJseClzZWxmI2p1bWJmPWMycGEuYXNzZXJ0aW9ucy9jMnBhLmhhc2guZGF0YWRoYXNoWCCVwkxKABh4gUyJFIAjZyI19+IjZV1h6xEm0jhX3ai+3nNnYXRoZXJlZF9hc3NlcnRpb25zgaJjdXJseC1zZWxmI2p1bWJmPWMycGEuYXNzZXJ0aW9ucy9jMnBhLmluZ3JlZGllbnQudjNkaGFzaFgg0Z3JOjDcgd0CbNRiUoZTFrRoXeCrqPXXytCR05ahxtBoZGM6dGl0bGVtUmVjcmFmdCBJbWFnZWNhbGdmc2hhMjU2AAAH3Gp1bWIAAAAoanVtZGMyY3MAEQAQgAAAqgA4m3EDYzJwYS5zaWduYXR1cmUAAAAHrGNib3LShFkDsKIBJhghglkB5zCCAeMwggGJoAMCAQICCQC33lpjQ1FuejAKBggqhkjOPQQDAjBAMR8wHQYDVQQDDBZSZWNyYWZ0IFN0YWdpbmcgRGV2IENBMRAwDgYDVQQKDAdSZWNyYWZ0MQswCQYDVQQGEwJVUzAeFw0yNjA2MTIxOTQzNTBaFw0yNzA2MTIxOTQzNTBaMDcxCzAJBgNVBAYTAlVTMRMwEQYDVQQKEwpSZWNyYWZ0IEFJMRMwEQYDVQQDEwpyZWNyYWZ0LmFpMFkwEwYHKoZIzj0CAQYIKoZIzj0DAQcDQgAESmk1WwArIPw3hty3jsWHSA/1QOhBRu9xOjpJ2/iiIghScoEVM+Lnjds/7dqmG+giFL0vEb4DoogpX6KrGLcPNaN1MHMwDAYDVR0TAQH/BAIwADAOBgNVHQ8BAf8EBAMCBsAwEwYDVR0lBAwwCgYIKwYBBQUHAwQwHQYDVR0OBBYEFC8x6QXp/eki9cuCDx2vDJDLIV39MB8GA1UdIwQYMBaAFAILKjgayqqXSv/5v5MWaO2UeHm3MAoGCCqGSM49BAMCA0gAMEUCIFPISltGl775PEkIFRTZGsevWJvWnvBrE9kWU0MPgedQAiEAtA+AZBKEQ+DdK9mUZDctB2Wlt1iAsv0GRjfeYpReMsxZAb0wggG5MIIBX6ADAgECAgkAnPloO0+gE28wCgYIKoZIzj0EAwIwQDEfMB0GA1UEAwwWUmVjcmFmdCBTdGFnaW5nIERldiBDQTEQMA4GA1UECgwHUmVjcmFmdDELMAkGA1UEBhMCVVMwHhcNMjYwNjEyMTk0MDE2WhcNMjgwNjExMTk0MDE2WjBAMR8wHQYDVQQDDBZSZWNyYWZ0IFN0YWdpbmcgRGV2IENBMRAwDgYDVQQKDAdSZWNyYWZ0MQswCQYDVQQGEwJVUzBZMBMGByqGSM49AgEGCCqGSM49AwEHA0IABEPSEAZXFWymij2K0EnzoS/9NLO8VAwu0YpyLizvyNZPfcvcoeqFhfZD8Wj/rcdb9T3ji98q1arie99B9GRog8qjQjBAMA8GA1UdEwEB/wQFMAMBAf8wDgYDVR0PAQH/BAQDAgGGMB0GA1UdDgQWBBQCCyo4Gsqql0r/+b+TFmjtlHh5tzAKBggqhkjOPQQDAgNIADBFAiBUMDSJi5WA3kIY4BfmYqk24HLs0qpjicN0NpUP4bvNxQIhAPTvHC5v8X6FS6geI7XW7h84t1i/qdkTfg0RpMKWLMFboWNwYWRZA6QAAAAAAAAAAAAAAAAAAAAAAAAAAAAAAAAAAAAAAAAAAAAAAAAAAAAAAAAAAAAAAAAAAAAAAAAAAAAAAAAAAAAAAAAAAAAAAAAAAAAAAAAAAAAAAAAAAAAAAAAAAAAAAAAAAAAAAAAAAAAAAAAAAAAAAAAAAAAAAAAAAAAAAAAAAAAAAAAAAAAAAAAAAAAAAAAAAAAAAAAAAAAAAAAAAAAAAAAAAAAAAAAAAAAAAAAAAAAAAAAAAAAAAAAAAAAAAAAAAAAAAAAAAAAAAAAAAAAAAAAAAAAAAAAAAAAAAAAAAAAAAAAAAAAAAAAAAAAAAAAAAAAAAAAAAAAAAAAAAAAAAAAAAAAAAAAAAAAAAAAAAAAAAAAAAAAAAAAAAAAAAAAAAAAAAAAAAAAAAAAAAAAAAAAAAAAAAAAAAAAAAAAAAAAAAAAAAAAAAAAAAAAAAAAAAAAAAAAAAAAAAAAAAAAAAAAAAAAAAAAAAAAAAAAAAAAAAAAAAAAAAAAAAAAAAAAAAAAAAAAAAAAAAAAAAAAAAAAAAAAAAAAAAAAAAAAAAAAAAAAAAAAAAAAAAAAAAAAAAAAAAAAAAAAAAAAAAAAAAAAAAAAAAAAAAAAAAAAAAAAAAAAAAAAAAAAAAAAAAAAAAAAAAAAAAAAAAAAAAAAAAAAAAAAAAAAAAAAAAAAAAAAAAAAAAAAAAAAAAAAAAAAAAAAAAAAAAAAAAAAAAAAAAAAAAAAAAAAAAAAAAAAAAAAAAAAAAAAAAAAAAAAAAAAAAAAAAAAAAAAAAAAAAAAAAAAAAAAAAAAAAAAAAAAAAAAAAAAAAAAAAAAAAAAAAAAAAAAAAAAAAAAAAAAAAAAAAAAAAAAAAAAAAAAAAAAAAAAAAAAAAAAAAAAAAAAAAAAAAAAAAAAAAAAAAAAAAAAAAAAAAAAAAAAAAAAAAAAAAAAAAAAAAAAAAAAAAAAAAAAAAAAAAAAAAAAAAAAAAAAAAAAAAAAAAAAAAAAAAAAAAAAAAAAAAAAAAAAAAAAAAAAAAAAAAAAAAAAAAAAAAAAAAAAAAAAAAAAAAAAAAAAAAAAAAAAAAAAAAAAAAAAAAAAAAAAAAAAAAAAAAAAAAAAAAAAAAAAAAAAAAAAAAAAAAAAAAAAAAAAAAAAAAAAAAAAAAAAAAAAAAAAAAAAAAAAAAAAAAAAAAAAAAAAAAAAAAAAAAAAAAAAAAAAAAAAAAAAAAAAAAAAAAAAAAAAAAAAAAAAAAPZYQMIbYJIGJfugzS03003p8OqtinzuohigqJ8xgIk9SussVE6F39g2/g0ttH99jHs8pE/dok5dmliosgURO6uK7pY=</c2pa:manifest></metadata><path fill="white" d="M0 0L1024 0L1024 1024L0 1024L0 0Z"/><path fill="#F6F6FA" d="M323.725 141.253C353.471 140.425 386.35 141.192 416.291 141.276L555.274 141.059L675.699 140.946C696.085 140.948 718.534 140.537 738.689 141.226C777.121 142.541 818.489 158.415 844.412 187.65C862.143 207.646 876.048 230.486 881.399 257.143C884.398 272.086 884.427 285.784 884.562 300.992L884.78 339.242L885.225 451.596L884.633 658.643C884.313 688.742 884.922 720.373 883.336 749.779C880.425 803.741 841.482 854.984 790.577 872.646C771.44 879.285 754.868 881.034 734.695 881.122C721.513 881.18 708.589 881.475 695.453 880.633C669.671 879.678 640.961 881.771 614.824 881.908C566.985 881.712 519.146 882.108 471.317 883.096L372.778 885.061C345.109 885.586 319.576 887.039 292 883.499C280.808 882.062 269.188 882.573 257.836 880.431C231.389 875.439 205.961 861.743 187.01 842.757C166.127 822.155 151.501 796.064 144.821 767.5C139.225 744.203 140.194 714.471 140.544 690.269L140.761 644.331L140.464 479.454L140.751 369.276L140.77 317.661C140.841 261.074 142.209 226.463 185.214 183.445C227.083 141.564 268.508 141.307 323.725 141.253Z"/><path fill="#6B5DFD" d="M330.339 266.705C335.379 265.941 345.875 266.477 351.214 266.501L387.889 266.565L513.312 266.496L634.729 266.524L672.021 266.475C680.507 266.465 689.764 266.102 698.216 267.166C728.639 270.995 754.434 295.433 758.831 325.941C759.943 333.657 759.49 342.44 759.47 350.258L759.411 384.91L759.377 502.548L759.346 634.932L759.44 672.941C759.462 679.108 759.737 689.63 759.052 695.548C757.522 707.709 752.752 719.235 745.24 728.921C731.864 746.326 715.527 754.11 694.123 756.91C685.093 757.625 675.152 757.458 666.033 757.439L622 757.182L492.723 757.058L387.158 757.266L352.125 757.295C343.361 757.255 334.038 757.426 325.355 756.266C290.077 751.55 263.638 720.541 265.135 684.906C265.327 680.341 265.125 674.97 265.131 670.319L265.209 630.394L265.348 501.022L265.256 384.745L265.194 349.292C265.165 326.183 265.3 311.133 281.126 292.2C294.491 276.21 309.688 268.725 330.339 266.705Z"/><path fill="#F6F6FA" d="M392.093 295.25L598.338 295.425L662.02 295.402C671.953 295.42 684.475 295.112 694.128 296.051C701.033 296.722 712.485 302.09 717.307 307.174C727.632 318.062 729.686 327.442 729.832 341.781L729.938 586.862L729.977 656.823C729.996 667.953 730.391 681.443 729.487 692.447C728.853 700.157 723.519 710.431 717.982 715.985C703.314 730.698 685.004 728.476 665.874 728.486L631.25 728.481L419.959 728.588L362.071 728.499C353.953 728.476 336.565 728.818 329.147 727.588C321.059 726.243 313.568 722.48 307.659 716.795C298.202 707.523 294.745 697.636 294.669 684.693L294.802 441.213L294.752 368.702C294.754 360.168 294.376 338.241 295.449 330.418C296.605 322.038 300.465 314.265 306.441 308.278C321.439 293.378 336.883 295.379 356.188 295.351L392.093 295.25Z"/><path fill="#6B5DFD" d="M471.067 365.185C472.677 365.03 475.548 364.985 477.199 364.99C493.208 365.044 509.139 364.875 525.155 364.965C535.735 365.025 548.275 364.3 558.524 365.808C563.551 366.548 569.807 370.001 573.302 373.61C583.59 384.235 582.471 395.36 582.453 408.938C607.616 408.982 629.725 406.251 649.179 425.687C661.873 438.369 666.098 450.616 666.192 468.156L666.153 555.079C666.126 569.717 667.018 589.695 664.708 603.879C663.335 612.305 656.447 625.27 650.022 631.338C630.574 649.704 613.139 648.189 589.042 648.12L553.75 648.027L419.927 648.304C400.695 648.292 388.742 645.08 374.614 631.403C355.995 613.376 358.156 591.91 358.325 568.19C358.369 562.084 358.358 555.865 358.374 549.758L358.236 468.236C358.268 452.186 362.375 437.999 374.159 426.5C394.929 406.232 416.241 409.068 442.599 409.362C442.482 398.117 441.15 385.959 448.687 376.897C454.75 369.609 461.839 366.193 471.067 365.185Z"/><path fill="#F6F6FA" d="M412.177 438.638C423.575 438.18 436.912 438.526 448.461 438.558L518.351 438.706L579.768 438.538C590.154 438.536 600.626 438.388 611.006 438.743C615.499 438.896 618.172 439.677 622.108 441.888C638.247 450.951 636.507 464.798 636.603 480.524L636.768 515.891L636.834 566.254C636.758 588.023 640.561 612.849 612.803 618.467C598.797 618.956 582.583 618.544 568.451 618.527L486.228 618.504L437.725 618.59C430.898 618.605 418.18 619.011 411.921 618.325C407.246 617.802 402.784 616.086 398.964 613.341C386.101 604.161 388.143 588.155 388.202 574.312L388.252 539.248L387.981 488.925C387.934 480.5 387.472 471.045 388.175 462.72C389.234 450.181 400.171 440.381 412.177 438.638Z"/><path fill="#6B5DFD" d="M503.227 455.262C543.236 450.343 579.644 478.823 584.504 518.839C589.363 558.855 560.83 595.221 520.807 600.021C480.867 604.812 444.593 576.351 439.744 536.418C434.894 496.486 463.302 460.17 503.227 455.262Z"/><path fill="#F6F6FA" d="M506.364 484.778C530.013 481.584 551.767 498.185 554.926 521.839C558.086 545.493 541.452 567.222 517.794 570.347C494.184 573.466 472.51 556.874 469.357 533.269C466.204 509.664 482.764 487.965 506.364 484.778Z"/><path fill="#F6F6FA" d="M472.218 394.236C499.013 393.906 525.811 393.974 552.603 394.442L552.587 409.038C525.829 409.225 499.07 409.254 472.311 409.125L472.218 394.236Z"/></svg>